# xmcd
#
# Track frame offsets:
# 150
# 16209
# 35916
# 51773
# 68033
# 81310
# 102164
# 118801
# 141131
# 170060
# 191847
# 213969
# 243371
# 266306
# 287975
# 290287
# 310424
#
# Disc length: 4361 seconds
#
#
# Revision: 0
# Processed by: cddbd v1.5.2PL0 Copyright (c) Steve Scherf et al.
# Submitted via: FreeRIP 2.90 
#
DISCID=03110711
DTITLE=The eagles - The very Best of
DYEAR=1900
DGENRE=Country
TTITLE0=Take it Easy
TTITLE1=Witch Woman
TTITLE2=Peaceful easy feeling
TTITLE3=Doolin dalton
TTITLE4=Desperado
TTITLE5=Tequila Sunrise
TTITLE6=Best of my love
TTITLE7=James Dean
TTITLE8=I can't tell you why
TTITLE9=Lyin eyes
TTITLE10=Take it to the limits
TTITLE11=One of these nights
TTITLE12=Hotel california
TTITLE13=New kid in town
TTITLE14=Life in the fast lane
TTITLE15=Heartache
TTITLE16=The long run
EXTD=
EXTT0=
EXTT1=
EXTT2=
EXTT3=
EXTT4=
EXTT5=
EXTT6=
EXTT7=
EXTT8=
EXTT9=
EXTT10=
EXTT11=
EXTT12=
EXTT13=
EXTT14=
EXTT15=
EXTT16=
PLAYORDER=
